<mxfile host="app.diagrams.net" modified="2023-06-16T01:37:29.010Z" agent="Mozilla/5.0 (Windows NT 10.0; Win64; x64) AppleWebKit/537.36 (KHTML, like Gecko) Chrome/112.0.0.0 YaBrowser/23.5.1.721 Yowser/2.5 Safari/537.36" version="21.4.0" etag="iUJPtbcLSmxxGnrIkVp3" type="github">
  <diagram name="Страница 1" id="GQUgukFBxI0Ogv81qwey">
    <mxGraphModel>
      <root>
        <mxCell id="0" />
        <mxCell id="1" parent="0" />
      </root>
    </mxGraphModel>
  </diagram>
</mxfile>
